<svg xmlns="http://www.w3.org/2000/svg" width="512" height="512" viewBox="0 0 512 512" version="1.1"><path d="M 247 48.877 C 245.625 49.329, 242.634 50.652, 240.353 51.817 C 236.344 53.865, 96.563 186.648, 75.888 208.048 C 54.129 230.570, 40.945 255.305, 34.326 286.024 C 31.708 298.177, 31.875 333.712, 34.609 346 L 36.500 354.500 256 354.500 L 475.500 354.500 477.331 346 C 478.536 340.409, 479.344 331.340, 479.691 319.500 C 480.138 304.262, 479.905 299.658, 478.172 289.494 C 472.979 259.028, 458.775 231.378, 436.500 208.374 C 431.550 203.262, 393.197 166.266, 351.270 126.159 C 295.254 72.575, 273.775 52.634, 270.270 50.959 C 265.133 48.503, 251.777 47.308, 247 48.877" stroke="none" fill="#6c4434" fill-rule="evenodd"/><path d="M 37 355.812 C 37 356.259, 38.322 360.535, 39.937 365.314 C 55.732 412.043, 91.660 448.342, 137 463.381 C 150.180 467.753, 159.694 469.699, 174.140 470.977 C 188.909 472.285, 323.053 472.288, 337.813 470.981 C 394.104 465.999, 440.114 434.242, 464.512 383.532 C 468.713 374.801, 475 357.965, 475 355.448 C 475 355.202, 376.450 355, 256 355 C 135.550 355, 37 355.366, 37 355.812" stroke="none" fill="#f4ac63" fill-rule="evenodd"/></svg>